<?xml version="1.0" encoding="utf-8"?>
<!-- Generator: Adobe Illustrator 22.0.0, SVG Export Plug-In . SVG Version: 6.00 Build 0)  -->
<svg version="1.1" id="Layer_1" xmlns="http://www.w3.org/2000/svg" xmlns:xlink="http://www.w3.org/1999/xlink" x="0px" y="0px"
	 viewBox="0 0 322.4 80" style="enable-background:new 0 0 322.4 80;" xml:space="preserve">
<style type="text/css">
	.st0{fill:#1B1D3C;}
</style>
<g>
	<g>
		<path class="st0" d="M78.4,38.4l-4.3,1.6V29l4.3,2.9V38.4z M78.4,49l-4.3,2.9V40.8l4.3,1.4V49z M93.7,28.6l-4.3,2.8H79.1l-4.3-2.8
			H93.7z M93.7,52.3H74.8l4.3-2.8h10.4L93.7,52.3z M93.4,40.4l-4,1.3l-10.4,0.1l-4-1.3l4.1-1.6h10.3L93.4,40.4z"/>
		<path class="st0" d="M100.4,38.4l-4.3,1.6V29l4.3,2.9V38.4z M100.4,48.9l-4.3,2.9v-11l4.3,1.4V48.9z M113.7,30l-2.2,1.4h-10.4
			l-4.3-2.8h14.6L113.7,30z M115.5,40.4l-4,1.2l-10.3,0l-4-1.3l4.1-1.6h10.2L115.5,40.4z M119.6,52.3l-7.4-3.3l-5.2-6.9l4.8,0
			L119.6,52.3z M116.5,40.1l-4.3-1.6v-6.5l2.1-1.4l2.1,1.4V40.1z"/>
		<path class="st0" d="M125,38.4l-4.3,1.6V29l4.3,2.9V38.4z M125,49.5l-4.3,2.8V40.8l4.3,1.4V49.5z M140.3,28.6l-4.3,2.8h-10.3
			l-4.3-2.8H140.3z M140.1,40.4l-3.9,1.3l-10.4,0l-4-1.3l4.1-1.6H136L140.1,40.4z M141.1,40.1l-4.3-1.6v-6.5l4.3-2.9V40.1z
			 M141.1,52.3l-4.3-2.8v-7.3l4.3-1.4V52.3z"/>
		<path class="st0" d="M149.5,38.4l-4.3,1.6V29l4.3,2.9V38.4z M149.5,49.5l-4.3,2.8V40.8l4.3,1.4V49.5z M164.8,28.6l-4.3,2.8h-10.3
			l-4.3-2.8H164.8z M165.6,40.1l-4.3-1.6v-6.5l4.3-2.9V40.1z M165.6,52.3l-4.3-2.8v-7.3l4.3-1.4V52.3z"/>
		<path class="st0" d="M174,38.4l-4.3,1.6V29l4.3,2.9V38.4z M174,49.5l-4.3,2.8V40.8l4.3,1.4V49.5z M189.4,28.6l-4.3,2.8h-10.3
			l-4.3-2.8H189.4z M189.1,40.4l-3.9,1.3l-10.4,0l-4-1.3l4.1-1.6H185L189.1,40.4z M190.1,40.1l-4.3-1.6v-6.5l4.3-2.9V40.1z
			 M190.1,52.3l-4.3-2.8v-7.3l4.3-1.4V52.3z"/>
		<path class="st0" d="M198.5,38.4l-4.3,1.6V28.6l4.3,2.8V38.4z M198.5,49l-4.3,2.9V40.8l4.3,1.4V49z M213.9,52.3H195l4.3-2.8h10.4
			L213.9,52.3z M214.6,51.8l-4.3-2.9v-6.8l4.3-1.4V51.8z"/>
		<path class="st0" d="M222.3,38.4l-4.3,1.6V28.6l4.3,2.8V38.4z M237.4,40.4l-4,1.2H223l-4-1.3l4.1-1.6h10.2L237.4,40.4z
			 M230.4,50.6l-2.3,1.7l-2.1-1.7v-8.3h4.4V50.6z M238.3,40.1l-4.3-1.6v-7l4.3-2.8V40.1z"/>
		<path class="st0" d="M261.1,28.6l-3.4,2.8h-4.6l-2.4-1.6l-2.6,1.6h-4.7l-3.4-2.8H261.1z M252.7,39l-2.1,1.4l-2.2-1.4v-7l2.2-1.6
			l2.1,1.6V39z M252.7,50.8l-2.1,1.6l-2.2-1.5v-8.5l2.2-1.6l2.1,1.5V50.8z"/>
		<path class="st0" d="M267.1,40.1l-4.3-1.6v-7l4.3-2.8V40.1z M267.1,52.3l-4.3-2.8v-7.3l4.3-1.4V52.3z"/>
		<path class="st0" d="M275.5,38.6l-4.3,1.4v-8.2l2.1-1.4l2.1,1.4V38.6z M275.5,49l-2.1,1.4l-2.1-1.4v-8.2l4.3,1.6V49z M290.8,28.6
			l-4.3,2.8h-10.4L274,30l2.2-1.5H290.8z M290.8,52.3h-14.6l-2.2-1.5l2.2-1.4h10.4L290.8,52.3z"/>
		<path class="st0" d="M297.5,38.4l-4.3,1.6v-8.2l2.1-1.4l2.1,1.4V38.4z M310.8,50.8l-2.2,1.5h-15.3l4.7-2.8h10.7L310.8,50.8z
			 M312.6,40.4l-4,1.3l-10.4-0.1l-4-1.3l4.1-1.6h10.3L312.6,40.4z M313.6,28.6l-4.6,2.8h-10.7l-2.2-1.4l2.2-1.5H313.6z M313.6,49
			l-2.1,1.4l-2.1-1.4v-6.8l4.3-1.4V49z"/>
	</g>
	<g>
		<path class="st0" d="M54.4,25.2l-4.7,4h-6.4l-3.4-2.3l-3.6,2.3h-6.5l-4.7-4H54.4z M42.8,39.7l-3,1.9l-3-1.9V30l3.1-2.2l2.9,2.2
			V39.7z M42.8,56.1l-3,2.2l-3-2.2V44.3l3.1-2.2l2.9,2.1V56.1z"/>
	</g>
	<path class="st0" d="M38.8,16.4c13,0,23.6,10.6,23.6,23.6S51.9,63.6,38.8,63.6S15.2,53,15.2,40S25.8,16.4,38.8,16.4 M38.8,10.1
		C22.3,10.1,8.9,23.5,8.9,40s13.4,29.9,29.9,29.9S68.8,56.5,68.8,40S55.4,10.1,38.8,10.1L38.8,10.1z"/>
</g>
</svg>
